<svg xmlns="http://www.w3.org/2000/svg"  viewBox="0 0 64 64" width="64px" height="64px"><path fill="#ffce29" d="M50.027,36.464c-1.159,2.784,2.448,8.829,0.357,10.92c-2.091,2.091-8.136-1.517-10.92-0.357	C36.777,48.132,35.087,55,32,55c-1.582,0-2.784-1.788-3.954-3.694c-1.116-1.82-2.199-3.738-3.51-4.279	c-1.343-0.563-3.445-0.011-5.503,0.477c-2.199,0.52-4.333,0.964-5.417-0.119c-2.091-2.091,1.517-8.136,0.357-10.92	C12.868,33.777,6,32.087,6,29s6.868-4.777,7.973-7.464c1.159-2.784-2.448-8.829-0.357-10.92c2.091-2.091,8.136,1.517,10.92,0.357	C27.223,9.868,28.913,3,32,3s4.777,6.868,7.464,7.973c1.322,0.553,3.369,0.033,5.395-0.444c2.232-0.542,4.42-1.018,5.525,0.087	c1.105,1.105,0.628,3.293,0.087,5.525c-0.477,2.026-0.997,4.073-0.444,5.395C51.132,24.223,58,25.913,58,29	S51.132,33.777,50.027,36.464z"/><path fill="orange" d="M44,29c0,6.63-5.37,12-12,12c-1.74,0-3.4-0.37-4.89-1.04c-2.7-1.2-4.87-3.37-6.07-6.07	C20.37,32.4,20,30.74,20,29c0-6.63,5.37-12,12-12c1.74,0,3.4,0.37,4.89,1.04c2.7,1.2,4.87,3.37,6.07,6.07C43.63,25.6,44,27.26,44,29	z"/><path d="M44,29c0,6.63-5.37,12-12,12c-1.74,0-3.4-0.37-4.89-1.04C27.59,37.7,29.6,36,32,36	c1.04,0,2.03-0.22,2.95-0.66c1.51-0.7,2.69-1.88,3.38-3.36C38.78,31.03,39,30.04,39,29c0-2.4,1.7-4.41,3.96-4.89	C43.63,25.6,44,27.26,44,29z" opacity=".15"/><path fill="#fff" d="M36.89,18.04C36.41,20.3,34.4,22,32,22c-1.04,0-2.03,0.22-2.95,0.66	c-1.51,0.7-2.69,1.88-3.38,3.36C25.22,26.97,25,27.96,25,29c0,2.4-1.7,4.41-3.96,4.89C20.37,32.4,20,30.74,20,29	c0-6.63,5.37-12,12-12C33.74,17,35.4,17.37,36.89,18.04z" opacity=".3"/><path fill="#fff" d="M27.078,25.522c-0.388,0-0.775-0.149-1.068-0.447c-0.582-0.59-0.574-1.54,0.016-2.121	c0.692-0.682,1.497-1.239,2.394-1.654C29.521,20.771,30.731,20.5,32,20.5c0.828,0,1.5,0.671,1.5,1.5s-0.672,1.5-1.5,1.5	c-0.816,0-1.592,0.173-2.303,0.513c-0.599,0.278-1.12,0.638-1.566,1.077C27.839,25.378,27.458,25.522,27.078,25.522z"/><ellipse cx="32" cy="61" opacity=".3" rx="18" ry="3"/></svg>