<?xml version="1.0" encoding="utf-8"?>
<!-- Generator: Adobe Illustrator 22.1.0, SVG Export Plug-In . SVG Version: 6.00 Build 0)  -->
<svg version="1.1" id="Layer_1" xmlns="http://www.w3.org/2000/svg" xmlns:xlink="http://www.w3.org/1999/xlink" x="0px" y="0px"
	 viewBox="0 0 256 256" style="enable-background:new 0 0 256 256;" xml:space="preserve">
<style type="text/css">
	.st0{fill:#231F20;}
	.st1{fill:#FFEFE4;}
	.st2{fill:#69EBFC;}
	.st3{fill:#5FD4E3;}
	.st4{fill:#A1F1FC;}
	.st5{fill:#D476E2;}
	.st6{fill:#B665C2;}
	.st7{fill:#EA82FA;}
	.st8{fill:#FFF7F2;}
	.st9{fill:#FF8354;}
	.st10{fill:#FFA172;}
	.st11{fill:#6770E6;}
	.st12{fill:#5861C7;}
	.st13{fill:#E0734A;}
	.st14{fill:#EDD4C2;}
	.st15{fill:#CC6944;}
	.st16{fill:#858EFF;}
	.st17{fill:#C76642;}
	.st18{fill:#FFFFFF;}
	.st19{fill:#FFDEC7;}
	.st20{fill:#4E56B0;}
	.st21{fill:#94529E;}
	.st22{fill:#41B6C5;}
	.st23{fill:#9847A4;}
	.st24{fill:#C2552C;}
	.st25{fill:#CFB6A4;}
</style>
<g>
	<path class="st11" d="M197,70H59c-8.837,0-16,7.163-16,16v14h170V86C213,77.163,205.837,70,197,70z"/>
	<path class="st16" d="M197,70H59c-8.837,0-16,7.164-16,16v6c0-8.836,7.163-16,16-16h138c8.837,0,16,7.164,16,16v-6
		C213,77.164,205.837,70,197,70z"/>
	<path class="st12" d="M169,70h-12v-4c0-5.514-4.486-10-10-10h-38c-5.514,0-10,4.486-10,10v4H87v-4c0-12.131,9.869-22,22-22h38
		c12.131,0,22,9.869,22,22V70z"/>
	<path class="st11" d="M147,44h-38c-12.131,0-22,9.869-22,22v4h0.095C88.109,58.803,97.544,50,109,50h38
		c11.456,0,20.891,8.803,21.905,20H169v-4C169,53.869,159.131,44,147,44z"/>
	<path class="st16" d="M215,116H41c-4.418,0-8-3.582-8-8v0c0-4.418,3.582-8,8-8h174c4.418,0,8,3.582,8,8v0
		C223,112.418,219.418,116,215,116z"/>
	<path class="st11" d="M213,116H43l18.038,126.263C62.164,250.145,68.914,256,76.877,256h102.247
		c7.962,0,14.713-5.855,15.839-13.737L213,116z"/>
	<path class="st12" d="M179.944,250H76.056c-7.23,0-13.464-4.682-15.527-11.303l0.509,3.565C62.164,250.145,68.914,256,76.877,256
		h102.247c7.962,0,14.713-5.855,15.839-13.737l0.509-3.565C193.409,245.318,187.175,250,179.944,250z"/>
	<path class="st12" d="M82.665,136h-0.93c-4.141,0-7.377,3.576-6.965,7.697l8.6,86c0.358,3.578,3.369,6.303,6.965,6.303h0.93
		c4.141,0,7.377-3.576,6.965-7.697l-8.6-86C89.273,138.725,86.261,136,82.665,136z"/>
	<path class="st12" d="M165.165,236h-0.93c-4.141,0-7.377-3.576-6.965-7.697l8.6-86c0.358-3.578,3.369-6.303,6.965-6.303h0.93
		c4.141,0,7.377,3.576,6.965,7.697l-8.6,86C171.773,233.275,168.761,236,165.165,236z"/>
	<path class="st12" d="M128.5,136h-1c-3.866,0-7,3.134-7,7v86c0,3.866,3.134,7,7,7h1c3.866,0,7-3.134,7-7v-86
		C135.5,139.134,132.366,136,128.5,136z"/>
</g>
</svg>
